# xmcd CD database file
#
# Track frame offsets:
#	150
#	16149
#	42495
#	79729
#	112544
#	137958
#	155556
#	199903
#	217572
#	230596
#
# Disc length: 3495 seconds
#
# Revision: 1
# Processed by: cddbd v1.5.2PL0 Copyright (c) Steve Scherf et al.
# Submitted via: FreeDB 13.2
#
DISCID=790da50a
DTITLE=Harlem Gospel Choir - Return To Buenos Aires
DYEAR=2006
DGENRE=Gospel
TTITLE0=Bless The Lord
TTITLE1=I Belive I Can Fly
TTITLE2=Man From Galilee
TTITLE3=Medley - Love's In Need Of Love - Sir Duke - Higher Ground
TTITLE4=Nobody Knows
TTITLE5=Ain't No Mountain
TTITLE6=Work It Out
TTITLE7=O When The Saints
TTITLE8=O Happy Day
TTITLE9=We Are The World
EXTD=Angels in Harlem Gospel Choir - Return to Buenos Aires - Live at\nsepte
EXTD=mber 2006
EXTT0=
EXTT1=
EXTT2=
EXTT3=
EXTT4=
EXTT5=
EXTT6=
EXTT7=
EXTT8=
EXTT9=
PLAYORDER=
